<?xml version="1.0" encoding="UTF-8" standalone="no"?>
<!DOCTYPE svg PUBLIC "-//W3C//DTD SVG 1.1//EN" "http://www.w3.org/Graphics/SVG/1.1/DTD/svg11.dtd">
<!-- Generated by graphviz version 2.40.1 (20161225.0304)
 -->
<!-- Title: %0 Pages: 1 -->
<svg width="279pt" height="178pt" viewBox="0.00 0.00 279.33 178.37" xmlns="http://www.w3.org/2000/svg" xmlns:xlink="http://www.w3.org/1999/xlink">
<g id="graph0" class="graph" transform="scale(1 1) rotate(0) translate(4 174.367)">
<title>%0</title>
<polygon fill="#ffffff" stroke="transparent" points="-4,4 -4,-174.367 275.3332,-174.367 275.3332,4 -4,4"/>
<!-- 1 -->
<g id="node1" class="node">
<title>1</title>
<ellipse fill="#000000" stroke="#000000" cx="17.815" cy="-35.9061" rx="1.8" ry="1.8"/>
</g>
<!-- 0 -->
<g id="node2" class="node">
<title>0</title>
<ellipse fill="#000000" stroke="#000000" cx="38.6398" cy="-10.2161" rx="1.8" ry="1.8"/>
</g>
<!-- 1&#45;&#45;0 -->
<g id="edge1" class="edge">
<title>1--0</title>
<path fill="none" stroke="#000000" d="M19.1813,-34.2205C23.018,-29.4875 33.8446,-16.1315 37.4529,-11.6802"/>
</g>
<!-- 2 -->
<g id="node3" class="node">
<title>2</title>
<ellipse fill="#000000" stroke="#000000" cx="1.8" cy="-1.8" rx="1.8" ry="1.8"/>
</g>
<!-- 2&#45;&#45;1 -->
<g id="edge3" class="edge">
<title>2--1</title>
<path fill="none" stroke="#000000" d="M2.661,-3.6337C5.4677,-9.611 14.3264,-28.4768 17.0262,-34.2264"/>
</g>
<!-- 2&#45;&#45;0 -->
<g id="edge2" class="edge">
<title>2--0</title>
<path fill="none" stroke="#000000" d="M3.7807,-2.2525C10.237,-3.7274 30.615,-8.3828 36.8255,-9.8016"/>
</g>
<!-- 3 -->
<g id="node4" class="node">
<title>3</title>
<ellipse fill="#000000" stroke="#000000" cx="54.8057" cy="-45.5533" rx="1.8" ry="1.8"/>
</g>
<!-- 3&#45;&#45;1 -->
<g id="edge5" class="edge">
<title>3--1</title>
<path fill="none" stroke="#000000" d="M52.817,-45.0346C46.3341,-43.3439 25.8727,-38.0076 19.6367,-36.3812"/>
</g>
<!-- 3&#45;&#45;0 -->
<g id="edge4" class="edge">
<title>3--0</title>
<path fill="none" stroke="#000000" d="M53.9366,-43.6534C51.1034,-37.4604 42.1612,-17.9136 39.4359,-11.9564"/>
</g>
<!-- 4 -->
<g id="node5" class="node">
<title>4</title>
<ellipse fill="#000000" stroke="#000000" cx="87.9337" cy="-63.2475" rx="1.8" ry="1.8"/>
</g>
<!-- 4&#45;&#45;3 -->
<g id="edge6" class="edge">
<title>4--3</title>
<path fill="none" stroke="#000000" d="M86.1526,-62.2962C80.3468,-59.1952 62.022,-49.4076 56.4373,-46.4247"/>
</g>
<!-- 5 -->
<g id="node6" class="node">
<title>5</title>
<ellipse fill="#000000" stroke="#000000" cx="56.701" cy="-83.01" rx="1.8" ry="1.8"/>
</g>
<!-- 5&#45;&#45;3 -->
<g id="edge7" class="edge">
<title>5--3</title>
<path fill="none" stroke="#000000" d="M56.5991,-80.9962C56.267,-74.4317 55.2186,-53.7125 54.8991,-47.398"/>
</g>
<!-- 5&#45;&#45;4 -->
<g id="edge8" class="edge">
<title>5--4</title>
<path fill="none" stroke="#000000" d="M58.3802,-81.9475C63.8539,-78.484 81.1303,-67.5524 86.3955,-64.2208"/>
</g>
<!-- 6 -->
<g id="node7" class="node">
<title>6</title>
<ellipse fill="#000000" stroke="#000000" cx="125.1579" cy="-69.0322" rx="1.8" ry="1.8"/>
</g>
<!-- 6&#45;&#45;4 -->
<g id="edge9" class="edge">
<title>6--4</title>
<path fill="none" stroke="#000000" d="M123.1566,-68.7212C116.6329,-67.7074 96.0423,-64.5076 89.767,-63.5324"/>
</g>
<!-- 7 -->
<g id="node8" class="node">
<title>7</title>
<ellipse fill="#000000" stroke="#000000" cx="160.8175" cy="-79.1081" rx="1.8" ry="1.8"/>
</g>
<!-- 7&#45;&#45;6 -->
<g id="edge10" class="edge">
<title>7--6</title>
<path fill="none" stroke="#000000" d="M158.9003,-78.5664C152.6508,-76.8005 132.9257,-71.2271 126.9141,-69.5284"/>
</g>
<!-- 8 -->
<g id="node9" class="node">
<title>8</title>
<ellipse fill="#000000" stroke="#000000" cx="196.1613" cy="-91.7453" rx="1.8" ry="1.8"/>
</g>
<!-- 8&#45;&#45;7 -->
<g id="edge11" class="edge">
<title>8--7</title>
<path fill="none" stroke="#000000" d="M194.2611,-91.0659C188.0669,-88.8512 168.5164,-81.8609 162.5582,-79.7305"/>
</g>
<!-- 9 -->
<g id="node10" class="node">
<title>9</title>
<ellipse fill="#000000" stroke="#000000" cx="234.7152" cy="-93.6683" rx="1.8" ry="1.8"/>
</g>
<!-- 9&#45;&#45;8 -->
<g id="edge12" class="edge">
<title>9--8</title>
<path fill="none" stroke="#000000" d="M232.6423,-93.565C225.8856,-93.2279 204.5595,-92.1642 198.0601,-91.84"/>
</g>
<!-- 10 -->
<g id="node11" class="node">
<title>10</title>
<ellipse fill="#000000" stroke="#000000" cx="221.3601" cy="-120.1702" rx="1.8" ry="1.8"/>
</g>
<!-- 10&#45;&#45;8 -->
<g id="edge13" class="edge">
<title>10--8</title>
<path fill="none" stroke="#000000" d="M220.0053,-118.6419C215.5891,-113.6603 201.6504,-97.9371 197.4023,-93.1452"/>
</g>
<!-- 10&#45;&#45;9 -->
<g id="edge14" class="edge">
<title>10--9</title>
<path fill="none" stroke="#000000" d="M222.2364,-118.4313C224.6504,-113.6409 231.3796,-100.2875 233.8182,-95.4484"/>
</g>
<!-- 11 -->
<g id="node12" class="node">
<title>11</title>
<ellipse fill="#000000" stroke="#000000" cx="263.094" cy="-104.6938" rx="1.8" ry="1.8"/>
</g>
<!-- 11&#45;&#45;9 -->
<g id="edge15" class="edge">
<title>11--9</title>
<path fill="none" stroke="#000000" d="M261.232,-103.9704C256.1023,-101.9775 241.8031,-96.4221 236.6213,-94.4089"/>
</g>
<!-- 11&#45;&#45;10 -->
<g id="edge16" class="edge">
<title>11--10</title>
<path fill="none" stroke="#000000" d="M261.3008,-105.3588C254.436,-107.9045 229.8729,-117.0134 223.1002,-119.5249"/>
</g>
<!-- 12 -->
<g id="node13" class="node">
<title>12</title>
<ellipse fill="#000000" stroke="#000000" cx="251.2093" cy="-135.0532" rx="1.8" ry="1.8"/>
</g>
<!-- 12&#45;&#45;9 -->
<g id="edge17" class="edge">
<title>12--9</title>
<path fill="none" stroke="#000000" d="M250.5006,-133.275C247.7874,-126.4676 238.0796,-102.1099 235.4029,-95.3939"/>
</g>
<!-- 12&#45;&#45;10 -->
<g id="edge18" class="edge">
<title>12--10</title>
<path fill="none" stroke="#000000" d="M249.2508,-134.0767C243.7515,-131.3347 228.2332,-123.5972 223.0613,-121.0184"/>
</g>
<!-- 12&#45;&#45;11 -->
<g id="edge19" class="edge">
<title>12--11</title>
<path fill="none" stroke="#000000" d="M251.9891,-133.0613C254.1787,-127.468 260.3574,-111.6844 262.4167,-106.4241"/>
</g>
<!-- 13 -->
<g id="node14" class="node">
<title>13</title>
<ellipse fill="#000000" stroke="#000000" cx="264.8574" cy="-68.411" rx="1.8" ry="1.8"/>
</g>
<!-- 13&#45;&#45;9 -->
<g id="edge20" class="edge">
<title>13--9</title>
<path fill="none" stroke="#000000" d="M263.2368,-69.7689C257.9542,-74.1954 241.2811,-88.1665 236.1996,-92.4244"/>
</g>
<!-- 13&#45;&#45;11 -->
<g id="edge21" class="edge">
<title>13--11</title>
<path fill="none" stroke="#000000" d="M264.7626,-70.3617C264.4593,-76.6027 263.514,-96.0517 263.1981,-102.5529"/>
</g>
<!-- 14 -->
<g id="node15" class="node">
<title>14</title>
<ellipse fill="#000000" stroke="#000000" cx="269.5332" cy="-168.567" rx="1.8" ry="1.8"/>
</g>
<!-- 14&#45;&#45;12 -->
<g id="edge22" class="edge">
<title>14--12</title>
<path fill="none" stroke="#000000" d="M268.5481,-166.7652C265.3367,-160.8917 255.2008,-142.3535 252.1117,-136.7037"/>
</g>
</g>
</svg>