<?xml version="1.0" encoding="utf-8" standalone="no"?>
<!DOCTYPE svg PUBLIC "-//W3C//DTD SVG 1.1//EN"
  "http://www.w3.org/Graphics/SVG/1.1/DTD/svg11.dtd">
<svg xmlns:xlink="http://www.w3.org/1999/xlink" width="460.8pt" height="345.6pt" viewBox="0 0 460.8 345.6" xmlns="http://www.w3.org/2000/svg" version="1.1">
 <metadata>
  <rdf:RDF xmlns:dc="http://purl.org/dc/elements/1.1/" xmlns:cc="http://creativecommons.org/ns#" xmlns:rdf="http://www.w3.org/1999/02/22-rdf-syntax-ns#">
   <cc:Work>
    <dc:type rdf:resource="http://purl.org/dc/dcmitype/StillImage"/>
    <dc:date>2023-12-07T07:47:08.440270</dc:date>
    <dc:format>image/svg+xml</dc:format>
    <dc:creator>
     <cc:Agent>
      <dc:title>Matplotlib v3.5.2, https://matplotlib.org/</dc:title>
     </cc:Agent>
    </dc:creator>
   </cc:Work>
  </rdf:RDF>
 </metadata>
 <defs>
  <style type="text/css">*{stroke-linejoin: round; stroke-linecap: butt}</style>
 </defs>
 <g id="figure_1">
  <g id="patch_1">
   <path d="M 0 345.6 
L 460.8 345.6 
L 460.8 0 
L 0 0 
z
" style="fill: #ffffff"/>
  </g>
  <g id="axes_1">
   <g id="patch_2">
    <path d="M 57.6 307.584 
L 414.72 307.584 
L 414.72 41.472 
L 57.6 41.472 
z
" style="fill: #ffffff"/>
   </g>
   <g id="PathCollection_1"/>
   <g id="matplotlib.axis_1">
    <g id="xtick_1">
     <g id="line2d_1">
      <defs>
       <path id="m24604aae10" d="M 0 0 
L 0 3.5 
" style="stroke: #000000; stroke-width: 0.8"/>
      </defs>
      <g>
       <use xlink:href="#m24604aae10" x="57.6" y="307.584" style="stroke: #000000; stroke-width: 0.8"/>
      </g>
     </g>
     <g id="text_1">
      <!-- 0 -->
      <g transform="translate(54.41875 322.182437)scale(0.1 -0.1)">
       <defs>
        <path id="DejaVuSans-30" d="M 2034 4250 
Q 1547 4250 1301 3770 
Q 1056 3291 1056 2328 
Q 1056 1369 1301 889 
Q 1547 409 2034 409 
Q 2525 409 2770 889 
Q 3016 1369 3016 2328 
Q 3016 3291 2770 3770 
Q 2525 4250 2034 4250 
z
M 2034 4750 
Q 2819 4750 3233 4129 
Q 3647 3509 3647 2328 
Q 3647 1150 3233 529 
Q 2819 -91 2034 -91 
Q 1250 -91 836 529 
Q 422 1150 422 2328 
Q 422 3509 836 4129 
Q 1250 4750 2034 4750 
z
" transform="scale(0.015625)"/>
       </defs>
       <use xlink:href="#DejaVuSans-30"/>
      </g>
     </g>
    </g>
    <g id="xtick_2">
     <g id="line2d_2">
      <g>
       <use xlink:href="#m24604aae10" x="117.12" y="307.584" style="stroke: #000000; stroke-width: 0.8"/>
      </g>
     </g>
     <g id="text_2">
      <!-- 1 -->
      <g transform="translate(113.93875 322.182437)scale(0.1 -0.1)">
       <defs>
        <path id="DejaVuSans-31" d="M 794 531 
L 1825 531 
L 1825 4091 
L 703 3866 
L 703 4441 
L 1819 4666 
L 2450 4666 
L 2450 531 
L 3481 531 
L 3481 0 
L 794 0 
L 794 531 
z
" transform="scale(0.015625)"/>
       </defs>
       <use xlink:href="#DejaVuSans-31"/>
      </g>
     </g>
    </g>
    <g id="xtick_3">
     <g id="line2d_3">
      <g>
       <use xlink:href="#m24604aae10" x="176.64" y="307.584" style="stroke: #000000; stroke-width: 0.8"/>
      </g>
     </g>
     <g id="text_3">
      <!-- 2 -->
      <g transform="translate(173.45875 322.182437)scale(0.1 -0.1)">
       <defs>
        <path id="DejaVuSans-32" d="M 1228 531 
L 3431 531 
L 3431 0 
L 469 0 
L 469 531 
Q 828 903 1448 1529 
Q 2069 2156 2228 2338 
Q 2531 2678 2651 2914 
Q 2772 3150 2772 3378 
Q 2772 3750 2511 3984 
Q 2250 4219 1831 4219 
Q 1534 4219 1204 4116 
Q 875 4013 500 3803 
L 500 4441 
Q 881 4594 1212 4672 
Q 1544 4750 1819 4750 
Q 2544 4750 2975 4387 
Q 3406 4025 3406 3419 
Q 3406 3131 3298 2873 
Q 3191 2616 2906 2266 
Q 2828 2175 2409 1742 
Q 1991 1309 1228 531 
z
" transform="scale(0.015625)"/>
       </defs>
       <use xlink:href="#DejaVuSans-32"/>
      </g>
     </g>
    </g>
    <g id="xtick_4">
     <g id="line2d_4">
      <g>
       <use xlink:href="#m24604aae10" x="236.16" y="307.584" style="stroke: #000000; stroke-width: 0.8"/>
      </g>
     </g>
     <g id="text_4">
      <!-- 3 -->
      <g transform="translate(232.97875 322.182437)scale(0.1 -0.1)">
       <defs>
        <path id="DejaVuSans-33" d="M 2597 2516 
Q 3050 2419 3304 2112 
Q 3559 1806 3559 1356 
Q 3559 666 3084 287 
Q 2609 -91 1734 -91 
Q 1441 -91 1130 -33 
Q 819 25 488 141 
L 488 750 
Q 750 597 1062 519 
Q 1375 441 1716 441 
Q 2309 441 2620 675 
Q 2931 909 2931 1356 
Q 2931 1769 2642 2001 
Q 2353 2234 1838 2234 
L 1294 2234 
L 1294 2753 
L 1863 2753 
Q 2328 2753 2575 2939 
Q 2822 3125 2822 3475 
Q 2822 3834 2567 4026 
Q 2313 4219 1838 4219 
Q 1578 4219 1281 4162 
Q 984 4106 628 3988 
L 628 4550 
Q 988 4650 1302 4700 
Q 1616 4750 1894 4750 
Q 2613 4750 3031 4423 
Q 3450 4097 3450 3541 
Q 3450 3153 3228 2886 
Q 3006 2619 2597 2516 
z
" transform="scale(0.015625)"/>
       </defs>
       <use xlink:href="#DejaVuSans-33"/>
      </g>
     </g>
    </g>
    <g id="xtick_5">
     <g id="line2d_5">
      <g>
       <use xlink:href="#m24604aae10" x="295.68" y="307.584" style="stroke: #000000; stroke-width: 0.8"/>
      </g>
     </g>
     <g id="text_5">
      <!-- 4 -->
      <g transform="translate(292.49875 322.182437)scale(0.1 -0.1)">
       <defs>
        <path id="DejaVuSans-34" d="M 2419 4116 
L 825 1625 
L 2419 1625 
L 2419 4116 
z
M 2253 4666 
L 3047 4666 
L 3047 1625 
L 3713 1625 
L 3713 1100 
L 3047 1100 
L 3047 0 
L 2419 0 
L 2419 1100 
L 313 1100 
L 313 1709 
L 2253 4666 
z
" transform="scale(0.015625)"/>
       </defs>
       <use xlink:href="#DejaVuSans-34"/>
      </g>
     </g>
    </g>
    <g id="xtick_6">
     <g id="line2d_6">
      <g>
       <use xlink:href="#m24604aae10" x="355.2" y="307.584" style="stroke: #000000; stroke-width: 0.8"/>
      </g>
     </g>
     <g id="text_6">
      <!-- 5 -->
      <g transform="translate(352.01875 322.182437)scale(0.1 -0.1)">
       <defs>
        <path id="DejaVuSans-35" d="M 691 4666 
L 3169 4666 
L 3169 4134 
L 1269 4134 
L 1269 2991 
Q 1406 3038 1543 3061 
Q 1681 3084 1819 3084 
Q 2600 3084 3056 2656 
Q 3513 2228 3513 1497 
Q 3513 744 3044 326 
Q 2575 -91 1722 -91 
Q 1428 -91 1123 -41 
Q 819 9 494 109 
L 494 744 
Q 775 591 1075 516 
Q 1375 441 1709 441 
Q 2250 441 2565 725 
Q 2881 1009 2881 1497 
Q 2881 1984 2565 2268 
Q 2250 2553 1709 2553 
Q 1456 2553 1204 2497 
Q 953 2441 691 2322 
L 691 4666 
z
" transform="scale(0.015625)"/>
       </defs>
       <use xlink:href="#DejaVuSans-35"/>
      </g>
     </g>
    </g>
    <g id="xtick_7">
     <g id="line2d_7">
      <g>
       <use xlink:href="#m24604aae10" x="414.72" y="307.584" style="stroke: #000000; stroke-width: 0.8"/>
      </g>
     </g>
     <g id="text_7">
      <!-- 6 -->
      <g transform="translate(411.53875 322.182437)scale(0.1 -0.1)">
       <defs>
        <path id="DejaVuSans-36" d="M 2113 2584 
Q 1688 2584 1439 2293 
Q 1191 2003 1191 1497 
Q 1191 994 1439 701 
Q 1688 409 2113 409 
Q 2538 409 2786 701 
Q 3034 994 3034 1497 
Q 3034 2003 2786 2293 
Q 2538 2584 2113 2584 
z
M 3366 4563 
L 3366 3988 
Q 3128 4100 2886 4159 
Q 2644 4219 2406 4219 
Q 1781 4219 1451 3797 
Q 1122 3375 1075 2522 
Q 1259 2794 1537 2939 
Q 1816 3084 2150 3084 
Q 2853 3084 3261 2657 
Q 3669 2231 3669 1497 
Q 3669 778 3244 343 
Q 2819 -91 2113 -91 
Q 1303 -91 875 529 
Q 447 1150 447 2328 
Q 447 3434 972 4092 
Q 1497 4750 2381 4750 
Q 2619 4750 2861 4703 
Q 3103 4656 3366 4563 
z
" transform="scale(0.015625)"/>
       </defs>
       <use xlink:href="#DejaVuSans-36"/>
      </g>
     </g>
    </g>
   </g>
   <g id="matplotlib.axis_2">
    <g id="ytick_1">
     <g id="line2d_8">
      <defs>
       <path id="mdf99503c7f" d="M 0 0 
L -3.5 0 
" style="stroke: #000000; stroke-width: 0.8"/>
      </defs>
      <g>
       <use xlink:href="#mdf99503c7f" x="57.6" y="288.576" style="stroke: #000000; stroke-width: 0.8"/>
      </g>
     </g>
     <g id="text_8">
      <!-- −6 -->
      <g transform="translate(35.857813 292.375219)scale(0.1 -0.1)">
       <defs>
        <path id="DejaVuSans-2212" d="M 678 2272 
L 4684 2272 
L 4684 1741 
L 678 1741 
L 678 2272 
z
" transform="scale(0.015625)"/>
       </defs>
       <use xlink:href="#DejaVuSans-2212"/>
       <use xlink:href="#DejaVuSans-36" x="83.789062"/>
      </g>
     </g>
    </g>
    <g id="ytick_2">
     <g id="line2d_9">
      <g>
       <use xlink:href="#mdf99503c7f" x="57.6" y="250.56" style="stroke: #000000; stroke-width: 0.8"/>
      </g>
     </g>
     <g id="text_9">
      <!-- −4 -->
      <g transform="translate(35.857813 254.359219)scale(0.1 -0.1)">
       <use xlink:href="#DejaVuSans-2212"/>
       <use xlink:href="#DejaVuSans-34" x="83.789062"/>
      </g>
     </g>
    </g>
    <g id="ytick_3">
     <g id="line2d_10">
      <g>
       <use xlink:href="#mdf99503c7f" x="57.6" y="212.544" style="stroke: #000000; stroke-width: 0.8"/>
      </g>
     </g>
     <g id="text_10">
      <!-- −2 -->
      <g transform="translate(35.857813 216.343219)scale(0.1 -0.1)">
       <use xlink:href="#DejaVuSans-2212"/>
       <use xlink:href="#DejaVuSans-32" x="83.789062"/>
      </g>
     </g>
    </g>
    <g id="ytick_4">
     <g id="line2d_11">
      <g>
       <use xlink:href="#mdf99503c7f" x="57.6" y="174.528" style="stroke: #000000; stroke-width: 0.8"/>
      </g>
     </g>
     <g id="text_11">
      <!-- 0 -->
      <g transform="translate(44.2375 178.327219)scale(0.1 -0.1)">
       <use xlink:href="#DejaVuSans-30"/>
      </g>
     </g>
    </g>
    <g id="ytick_5">
     <g id="line2d_12">
      <g>
       <use xlink:href="#mdf99503c7f" x="57.6" y="136.512" style="stroke: #000000; stroke-width: 0.8"/>
      </g>
     </g>
     <g id="text_12">
      <!-- 2 -->
      <g transform="translate(44.2375 140.311219)scale(0.1 -0.1)">
       <use xlink:href="#DejaVuSans-32"/>
      </g>
     </g>
    </g>
    <g id="ytick_6">
     <g id="line2d_13">
      <g>
       <use xlink:href="#mdf99503c7f" x="57.6" y="98.496" style="stroke: #000000; stroke-width: 0.8"/>
      </g>
     </g>
     <g id="text_13">
      <!-- 4 -->
      <g transform="translate(44.2375 102.295219)scale(0.1 -0.1)">
       <use xlink:href="#DejaVuSans-34"/>
      </g>
     </g>
    </g>
    <g id="ytick_7">
     <g id="line2d_14">
      <g>
       <use xlink:href="#mdf99503c7f" x="57.6" y="60.48" style="stroke: #000000; stroke-width: 0.8"/>
      </g>
     </g>
     <g id="text_14">
      <!-- 6 -->
      <g transform="translate(44.2375 64.279219)scale(0.1 -0.1)">
       <use xlink:href="#DejaVuSans-36"/>
      </g>
     </g>
    </g>
   </g>
   <g id="line2d_15">
    <path d="M 57.6 230.204683 
L 58.7904 232.562927 
L 59.9808 229.173188 
L 61.1712 231.854028 
L 62.3616 231.520443 
L 63.552 232.496689 
L 64.7424 228.840851 
L 65.9328 227.867361 
L 67.1232 229.795746 
L 68.3136 228.56217 
L 69.504 228.237108 
L 70.6944 226.369729 
L 71.8848 230.998277 
L 73.0752 231.06163 
L 74.2656 227.390961 
L 75.456 227.20123 
L 76.6464 222.576115 
L 77.8368 220.132913 
L 79.0272 226.011148 
L 80.2176 224.201626 
L 81.408 227.886368 
L 82.5984 228.943417 
L 83.7888 222.217822 
L 84.9792 226.434234 
L 86.1696 218.926232 
L 87.36 223.823656 
L 88.5504 220.258058 
L 89.7408 225.450798 
L 90.9312 222.616754 
L 92.1216 223.378878 
L 93.312 223.038069 
L 94.5024 224.121148 
L 95.6928 224.872904 
L 96.8832 226.000143 
L 98.0736 224.878328 
L 99.264 229.445926 
L 100.4544 232.107861 
L 101.6448 231.354146 
L 102.8352 235.131105 
L 104.0256 233.368283 
L 105.216 234.584271 
L 106.4064 234.935488 
L 107.5968 234.842531 
L 108.7872 235.231203 
L 109.9776 233.648666 
L 111.168 231.005454 
L 112.3584 231.29483 
L 113.5488 231.96897 
L 114.7392 235.398752 
L 115.9296 237.828199 
L 117.12 235.706183 
L 118.3104 235.869414 
L 119.5008 233.64423 
L 120.6912 239.383886 
L 121.8816 239.538266 
L 123.072 236.052851 
L 124.2624 236.624446 
L 125.4528 236.881962 
L 126.6432 237.951924 
L 127.8336 236.71152 
L 129.024 241.692108 
L 130.2144 243.34471 
L 131.4048 246.849581 
L 132.5952 244.523398 
L 133.7856 241.004305 
L 134.976 237.072104 
L 136.1664 234.573367 
L 137.3568 235.020271 
L 138.5472 232.316285 
L 139.7376 229.14236 
L 140.928 228.139782 
L 142.1184 229.242206 
L 143.3088 221.628607 
L 144.4992 221.6187 
L 146.88 229.110896 
L 148.0704 233.828124 
L 150.4512 240.614355 
L 151.6416 243.056451 
L 152.832 240.394891 
L 154.0224 238.866061 
L 156.4032 238.58545 
L 157.5936 239.641043 
L 158.784 237.235338 
L 159.9744 241.670227 
L 161.1648 241.78573 
L 162.3552 246.30017 
L 163.5456 245.682211 
L 164.736 244.848693 
L 165.9264 242.883862 
L 167.1168 249.352426 
L 168.3072 251.585336 
L 169.4976 247.605053 
L 170.688 242.926359 
L 171.8784 244.71624 
L 173.0688 245.103436 
L 174.2592 242.933821 
L 175.4496 242.992957 
L 177.8304 235.232213 
L 179.0208 229.761862 
L 180.2112 231.829433 
L 181.4016 233.633036 
L 182.592 233.926793 
L 183.7824 234.382134 
L 184.9728 231.431638 
L 186.1632 232.937975 
L 187.3536 228.891735 
L 188.544 228.10771 
L 189.7344 226.922745 
L 190.9248 227.382991 
L 192.1152 225.550336 
L 193.3056 225.241139 
L 194.496 226.338328 
L 195.6864 225.874831 
L 196.8768 224.374236 
L 198.0672 227.593828 
L 199.2576 226.66388 
L 200.448 229.758965 
L 201.6384 230.160679 
L 202.8288 231.8004 
L 204.0192 233.082087 
L 205.2096 236.465544 
L 206.4 237.273419 
L 207.5904 239.287274 
L 208.7808 240.432103 
L 209.9712 242.51906 
L 211.1616 239.588637 
L 212.352 240.453505 
L 213.5424 243.420995 
L 214.7328 245.500956 
L 215.9232 244.540929 
L 217.1136 241.731697 
L 218.304 243.808646 
L 219.4944 239.621691 
L 220.6848 239.730509 
L 221.8752 246.316877 
L 223.0656 241.153553 
L 224.256 239.773665 
L 225.4464 241.802697 
L 226.6368 243.245105 
L 227.8272 247.530146 
L 229.0176 240.281502 
L 230.208 242.427384 
L 232.5888 250.989225 
L 233.7792 244.834922 
L 234.9696 241.315696 
L 236.16 242.507499 
L 237.3504 237.397041 
L 238.5408 234.291138 
L 239.7312 234.3872 
L 240.9216 236.961227 
L 242.112 240.741451 
L 243.3024 236.90695 
L 244.4928 236.160731 
L 245.6832 229.433838 
L 246.8736 229.700629 
L 248.064 227.760273 
L 249.2544 229.527911 
L 250.4448 228.835694 
L 251.6352 225.036775 
L 252.8256 228.296158 
L 254.016 226.36872 
L 255.2064 226.828946 
L 256.3968 228.093947 
L 257.5872 223.664311 
L 258.7776 218.528505 
L 259.968 222.12528 
L 261.1584 146.441415 
L 262.3488 150.62624 
L 263.5392 148.186148 
L 264.7296 146.235042 
L 265.92 149.057197 
L 267.1104 148.423208 
L 268.3008 151.105643 
L 269.4912 152.791571 
L 270.6816 154.170819 
L 271.872 153.3652 
L 273.0624 155.524737 
L 274.2528 153.291284 
L 275.4432 155.475967 
L 276.6336 156.204719 
L 277.824 154.496208 
L 279.0144 153.413021 
L 280.2048 151.430369 
L 281.3952 156.618928 
L 282.5856 154.322988 
L 283.776 154.352775 
L 284.9664 153.33855 
L 286.1568 156.822255 
L 287.3472 154.16861 
L 288.5376 153.867736 
L 289.728 148.835118 
L 290.9184 148.792838 
L 292.1088 149.391517 
L 293.2992 147.814961 
L 294.4896 145.037915 
L 295.68 144.800254 
L 296.8704 146.216347 
L 298.0608 143.136054 
L 299.2512 144.52353 
L 300.4416 142.800332 
L 301.632 142.919276 
L 302.8224 144.345441 
L 304.0128 144.963258 
L 305.2032 143.7319 
L 306.3936 146.884668 
L 307.584 147.151092 
L 308.7744 146.85806 
L 309.9648 145.195066 
L 311.1552 145.553074 
L 312.3456 146.155835 
L 313.536 143.728563 
L 314.7264 143.018249 
L 315.9168 146.491221 
L 317.1072 146.834907 
L 318.2976 148.167306 
L 319.488 148.613825 
L 320.6784 150.591526 
L 321.8688 156.543609 
L 323.0592 157.91159 
L 324.2496 156.983425 
L 325.44 159.027013 
L 326.6304 161.667529 
L 327.8208 161.791396 
L 329.0112 164.28619 
L 330.2016 165.125238 
L 331.392 164.260473 
L 332.5824 159.509438 
L 333.7728 160.761071 
L 334.9632 164.30497 
L 336.1536 163.435213 
L 337.344 164.297793 
L 338.5344 169.770581 
L 339.7248 171.857576 
L 340.9152 170.240452 
L 342.1056 173.082878 
L 343.296 181.372766 
L 344.4864 179.976891 
L 345.6768 180.623523 
L 346.8672 179.596279 
L 348.0576 176.944891 
L 349.248 176.515149 
L 350.4384 174.113886 
L 351.6288 179.053998 
L 352.8192 173.788186 
L 354.0096 175.87405 
L 355.2 169.877657 
L 356.3904 167.039834 
L 357.5808 168.372447 
L 358.7712 162.35559 
L 359.9616 161.924364 
L 361.152 166.154239 
L 362.3424 166.060792 
L 363.5328 166.921988 
L 364.7232 169.60977 
L 365.9136 166.876175 
L 368.2944 165.400941 
L 369.4848 170.516056 
L 370.6752 170.161093 
L 371.8656 168.728183 
L 373.056 168.891863 
L 374.2464 170.965654 
L 375.4368 164.614628 
L 376.6272 236.013799 
L 377.8176 233.42005 
L 379.008 235.356145 
L 380.1984 232.971074 
L 381.3888 230.260359 
L 382.5792 227.999008 
L 383.7696 229.609989 
L 384.96 230.001125 
L 386.1504 233.310253 
L 387.3408 236.179941 
L 388.5312 231.225708 
L 389.7216 228.001311 
L 390.912 226.304238 
L 392.1024 225.153282 
L 393.2928 226.217626 
L 394.4832 228.893173 
L 395.6736 234.381065 
L 396.864 237.308325 
L 398.0544 150.904617 
L 399.2448 150.227167 
L 400.4352 150.419589 
L 401.6256 149.972986 
L 405.1968 143.097442 
L 406.3872 145.603185 
L 407.5776 146.935543 
L 408.768 148.9939 
L 409.9584 152.105863 
L 411.1488 153.871705 
L 412.3392 156.245024 
L 413.5296 155.394283 
L 414.72 154.262484 
L 414.72 154.262484 
" clip-path="url(#p3973f19768)" style="fill: none; stroke: #008000; stroke-width: 0.5; stroke-linecap: square"/>
   </g>
   <g id="line2d_16">
    <path d="M 57.6 104.648749 
L 58.7904 105.874309 
L 59.9808 106.157105 
L 61.1712 101.897202 
L 62.3616 102.684461 
L 63.552 106.711314 
L 64.7424 103.235715 
L 65.9328 103.621189 
L 67.1232 105.410329 
L 68.3136 107.834495 
L 69.504 108.988163 
L 70.6944 106.159294 
L 71.8848 105.579585 
L 73.0752 106.245441 
L 74.2656 108.507581 
L 75.456 103.825166 
L 76.6464 105.988736 
L 77.8368 107.143942 
L 79.0272 105.281338 
L 80.2176 107.390486 
L 81.408 108.799695 
L 82.5984 104.240428 
L 83.7888 101.832725 
L 84.9792 107.310706 
L 86.1696 110.854287 
L 87.36 112.982704 
L 88.5504 111.363314 
L 89.7408 113.613636 
L 90.9312 110.701171 
L 92.1216 110.141137 
L 93.312 108.752998 
L 94.5024 113.90993 
L 95.6928 114.916852 
L 96.8832 114.619342 
L 98.0736 118.120077 
L 99.264 120.465827 
L 100.4544 121.012191 
L 101.6448 122.89822 
L 102.8352 123.536229 
L 104.0256 126.321381 
L 105.216 120.465535 
L 106.4064 121.705681 
L 107.5968 122.775523 
L 108.7872 121.646829 
L 109.9776 120.320215 
L 111.168 116.283817 
L 112.3584 115.736325 
L 113.5488 116.6286 
L 114.7392 115.792315 
L 115.9296 117.690255 
L 117.12 119.207386 
L 118.3104 119.113154 
L 119.5008 114.135999 
L 120.6912 117.359093 
L 121.8816 116.427537 
L 123.072 115.247202 
L 124.2624 114.396234 
L 125.4528 111.345979 
L 126.6432 106.619943 
L 127.8336 106.329505 
L 130.2144 110.983968 
L 131.4048 107.668072 
L 132.5952 104.738195 
L 133.7856 105.186005 
L 134.976 106.783191 
L 136.1664 105.729836 
L 137.3568 105.897492 
L 138.5472 108.052785 
L 139.7376 105.615212 
L 140.928 108.047454 
L 142.1184 102.600767 
L 144.4992 104.476138 
L 145.6896 109.138772 
L 146.88 108.214105 
L 148.0704 103.889416 
L 149.2608 107.18533 
L 150.4512 104.234949 
L 151.6416 107.348225 
L 152.832 104.02895 
L 154.0224 104.10593 
L 155.2128 108.980774 
L 156.4032 111.629617 
L 157.5936 111.988107 
L 158.784 107.818546 
L 159.9744 111.137909 
L 161.1648 111.595449 
L 162.3552 110.36211 
L 163.5456 108.886172 
L 164.736 109.633117 
L 165.9264 108.781262 
L 167.1168 112.392041 
L 168.3072 114.772671 
L 170.688 117.517153 
L 171.8784 118.233567 
L 173.0688 116.435797 
L 174.2592 113.621643 
L 175.4496 113.267609 
L 176.64 107.652833 
L 177.8304 103.14192 
L 179.0208 103.106928 
L 180.2112 98.572595 
L 181.4016 97.868461 
L 182.592 99.944151 
L 183.7824 94.496318 
L 184.9728 95.581904 
L 186.1632 95.64405 
L 187.3536 97.421787 
L 188.544 94.460352 
L 189.7344 97.803249 
L 190.9248 98.251132 
L 192.1152 92.751378 
L 193.3056 93.216132 
L 194.496 92.249966 
L 195.6864 92.455902 
L 196.8768 89.772542 
L 198.0672 86.728039 
L 199.2576 88.875716 
L 200.448 89.432392 
L 201.6384 87.207531 
L 202.8288 88.849516 
L 204.0192 91.600819 
L 205.2096 88.366626 
L 206.4 89.746518 
L 207.5904 87.497443 
L 208.7808 86.946397 
L 209.9712 93.259196 
L 211.1616 90.40062 
L 212.352 92.757671 
L 214.7328 88.984453 
L 215.9232 89.056737 
L 218.304 97.579415 
L 219.4944 99.351037 
L 220.6848 99.950889 
L 221.8752 100.150815 
L 225.4464 103.684786 
L 226.6368 107.168282 
L 227.8272 108.340506 
L 229.0176 110.081665 
L 230.208 108.196846 
L 231.3984 112.110479 
L 232.5888 113.860159 
L 233.7792 112.165485 
L 234.9696 111.034113 
L 236.16 115.301054 
L 237.3504 115.981097 
L 238.5408 111.030186 
L 239.7312 108.075313 
L 240.9216 108.839994 
L 242.112 115.460377 
L 243.3024 117.979674 
L 244.4928 111.090193 
L 245.6832 110.478302 
L 246.8736 113.597494 
L 248.064 111.197891 
L 249.2544 111.786295 
L 250.4448 111.730158 
L 251.6352 115.250185 
L 252.8256 112.690016 
L 254.016 110.937651 
L 255.2064 112.033635 
L 256.3968 109.826715 
L 258.7776 111.943559 
L 259.968 113.737668 
L 261.1584 110.333237 
L 262.3488 107.997496 
L 263.5392 106.66048 
L 264.7296 110.018914 
L 265.92 106.740847 
L 267.1104 104.649694 
L 268.3008 103.372833 
L 269.4912 100.197611 
L 270.6816 99.919738 
L 271.872 98.503252 
L 273.0624 100.48388 
L 275.4432 93.481961 
L 276.6336 93.530582 
L 277.824 96.304033 
L 279.0144 97.04709 
L 280.2048 100.450708 
L 281.3952 98.567437 
L 282.5856 94.805132 
L 283.776 94.929664 
L 284.9664 93.280083 
L 286.1568 94.467783 
L 287.3472 96.718202 
L 288.5376 103.352767 
L 289.728 104.246751 
L 290.9184 101.186432 
L 292.1088 104.865335 
L 293.2992 102.369976 
L 294.4896 103.500637 
L 295.68 101.791035 
L 296.8704 103.911783 
L 298.0608 109.459766 
L 299.2512 109.170055 
L 300.4416 112.84031 
L 301.632 115.154283 
L 302.8224 112.242491 
L 304.0128 111.79135 
L 305.2032 112.317627 
L 306.3936 112.296082 
L 307.584 114.031291 
L 308.7744 118.350484 
L 309.9648 119.396681 
L 311.1552 123.41305 
L 312.3456 122.925918 
L 313.536 124.475419 
L 314.7264 122.882155 
L 317.1072 122.942923 
L 318.2976 123.977277 
L 319.488 129.798461 
L 320.6784 127.817578 
L 321.8688 130.474279 
L 323.0592 130.634121 
L 324.2496 127.811403 
L 325.44 131.469707 
L 326.6304 125.340572 
L 327.8208 125.988081 
L 330.2016 120.233301 
L 331.392 116.363734 
L 332.5824 120.381779 
L 333.7728 125.595043 
L 334.9632 123.867887 
L 336.1536 124.707761 
L 337.344 123.141205 
L 338.5344 122.303192 
L 339.7248 122.397756 
L 340.9152 124.388177 
L 342.1056 124.002602 
L 343.296 125.196193 
L 345.6768 131.441173 
L 348.0576 130.961581 
L 349.248 129.962874 
L 350.4384 125.996014 
L 351.6288 125.467007 
L 354.0096 120.047995 
L 355.2 120.312906 
L 356.3904 118.530908 
L 357.5808 119.209257 
L 358.7712 121.763871 
L 359.9616 123.381454 
L 361.152 122.56939 
L 362.3424 123.350969 
L 363.5328 124.274809 
L 364.7232 123.493638 
L 365.9136 125.56822 
L 367.104 119.616997 
L 368.2944 119.164225 
L 369.4848 123.486257 
L 370.6752 120.37287 
L 371.8656 118.664889 
L 373.056 116.251468 
L 374.2464 118.364468 
L 375.4368 120.07361 
L 376.6272 124.532714 
L 377.8176 124.365945 
L 379.008 125.065942 
L 380.1984 125.329196 
L 381.3888 125.201251 
L 382.5792 125.325708 
L 383.7696 128.652311 
L 384.96 133.828535 
L 386.1504 138.389195 
L 387.3408 139.341776 
L 388.5312 135.865941 
L 390.912 133.038706 
L 392.1024 133.997377 
L 393.2928 136.756953 
L 394.4832 137.446516 
L 395.6736 135.157745 
L 396.864 129.7126 
L 398.0544 128.149446 
L 399.2448 123.405295 
L 400.4352 122.375881 
L 401.6256 118.888249 
L 402.816 119.196284 
L 404.0064 114.96282 
L 405.1968 111.982043 
L 406.3872 111.578111 
L 407.5776 107.735798 
L 408.768 105.740082 
L 409.9584 104.687745 
L 411.1488 100.178164 
L 412.3392 104.298055 
L 413.5296 101.797485 
L 414.72 101.168593 
L 414.72 101.168593 
" clip-path="url(#p3973f19768)" style="fill: none; stroke: #008000; stroke-width: 0.5; stroke-linecap: square"/>
   </g>
   <g id="line2d_17">
    <path d="M 57.6 167.711812 
L 58.7904 164.206996 
L 59.9808 163.506398 
L 61.1712 167.088242 
L 62.3616 172.100586 
L 63.552 168.527061 
L 64.7424 168.738481 
L 65.9328 166.104634 
L 67.1232 168.078544 
L 68.3136 171.152096 
L 69.504 168.402489 
L 70.6944 166.222603 
L 71.8848 166.790227 
L 73.0752 168.652513 
L 74.2656 166.547492 
L 75.456 166.686783 
L 76.6464 166.392481 
L 77.8368 164.456004 
L 79.0272 166.393986 
L 80.2176 167.41149 
L 81.408 169.125263 
L 83.7888 171.934501 
L 84.9792 169.074547 
L 86.1696 172.157181 
L 87.36 175.91844 
L 88.5504 176.045938 
L 89.7408 175.422633 
L 90.9312 175.475923 
L 92.1216 177.694821 
L 93.312 179.462048 
L 94.5024 174.97269 
L 95.6928 170.942755 
L 96.8832 169.65608 
L 98.0736 165.747988 
L 99.264 165.419397 
L 100.4544 168.979788 
L 101.6448 167.078646 
L 102.8352 167.124678 
L 104.0256 170.774288 
L 105.216 167.243317 
L 106.4064 168.05581 
L 107.5968 166.993272 
L 108.7872 175.318234 
L 109.9776 175.225911 
L 111.168 175.94417 
L 112.3584 178.175187 
L 113.5488 179.249032 
L 114.7392 178.07828 
L 115.9296 180.349574 
L 117.12 180.939348 
L 118.3104 186.004561 
L 119.5008 184.722787 
L 120.6912 184.254202 
L 121.8816 184.046715 
L 123.072 184.408821 
L 124.2624 186.263511 
L 125.4528 190.923124 
L 126.6432 189.773525 
L 127.8336 187.204015 
L 129.024 190.737817 
L 130.2144 193.030614 
L 131.4048 197.786859 
L 132.5952 198.836669 
L 133.7856 195.917975 
L 134.976 195.361507 
L 136.1664 200.087228 
L 137.3568 194.296145 
L 138.5472 194.081398 
L 139.7376 253.801174 
L 140.928 255.047553 
L 142.1184 257.586471 
L 143.3088 253.506202 
L 144.4992 253.51573 
L 145.6896 253.252362 
L 146.88 252.047538 
L 148.0704 250.674478 
L 149.2608 251.325265 
L 150.4512 256.438904 
L 151.6416 260.92234 
L 152.832 259.751365 
L 154.0224 261.69799 
L 155.2128 261.596815 
L 156.4032 261.122098 
L 157.5936 266.090296 
L 158.784 268.927442 
L 159.9744 269.179953 
L 161.1648 265.180281 
L 162.3552 265.256462 
L 163.5456 267.974527 
L 164.736 267.574728 
L 165.9264 268.348046 
L 167.1168 268.822768 
L 168.3072 268.424769 
L 169.4976 263.921816 
L 170.688 263.663094 
L 171.8784 260.235178 
L 174.2592 265.632002 
L 175.4496 262.453308 
L 176.64 259.743729 
L 177.8304 257.613942 
L 179.0208 257.365051 
L 180.2112 262.543174 
L 181.4016 260.946833 
L 182.592 258.55309 
L 183.7824 258.362441 
L 184.9728 263.382972 
L 186.1632 261.030016 
L 187.3536 262.431983 
L 189.7344 260.817069 
L 190.9248 259.588861 
L 192.1152 260.048471 
L 193.3056 260.236852 
L 195.6864 268.047271 
L 196.8768 267.448446 
L 198.0672 271.076676 
L 199.2576 272.772755 
L 200.448 276.583678 
L 201.6384 275.781228 
L 202.8288 280.803948 
L 204.0192 280.682561 
L 205.2096 280.726561 
L 206.4 282.025347 
L 207.5904 283.056537 
L 208.7808 284.917747 
L 209.9712 285.620269 
L 211.1616 285.675304 
L 212.352 282.990887 
L 213.5424 288.102413 
L 214.7328 294.317964 
L 215.9232 293.711444 
L 217.1136 292.276782 
L 218.304 291.618375 
L 219.4944 290.080935 
L 220.6848 292.303036 
L 221.8752 290.944041 
L 223.0656 292.207536 
L 224.256 293.109102 
L 225.4464 293.85943 
L 226.6368 294.459563 
L 229.0176 293.859639 
L 230.208 297.475163 
L 231.3984 297.305905 
L 232.5888 302.908459 
L 233.7792 302.400025 
L 234.9696 299.826528 
L 236.16 298.60881 
L 237.3504 301.556995 
L 238.5408 301.050755 
L 239.7312 301.970133 
L 240.9216 305.523971 
L 242.112 307.442493 
L 243.3024 312.022365 
L 244.4928 308.842004 
L 245.6832 308.0742 
L 246.8736 307.029591 
L 248.064 307.161705 
L 249.2544 307.101156 
L 250.4448 305.951781 
L 251.6352 308.213939 
L 252.8256 308.264629 
L 254.016 311.566506 
L 256.3968 309.702117 
L 257.5872 311.822011 
L 258.7776 311.463753 
L 259.968 309.320599 
L 261.1584 311.150382 
L 262.3488 309.718569 
L 263.5392 310.380704 
L 264.7296 314.17355 
L 265.92 315.665525 
L 267.1104 312.596515 
L 268.3008 312.570723 
L 269.4912 313.970949 
L 270.6816 310.383454 
L 271.872 310.901176 
L 273.0624 310.780301 
L 274.2528 312.799163 
L 275.4432 310.152559 
L 276.6336 311.14474 
L 277.824 309.736944 
L 279.0144 312.523634 
L 280.2048 311.359199 
L 281.3952 311.132288 
L 282.5856 310.31953 
L 283.776 313.35463 
L 284.9664 311.386046 
L 286.1568 307.766665 
L 287.3472 312.298001 
L 288.5376 313.552891 
L 289.728 314.083263 
L 290.9184 313.043401 
L 292.1088 316.642133 
L 293.2992 316.119806 
L 294.4896 310.864209 
L 295.68 312.248343 
L 296.8704 307.486346 
L 298.0608 307.469168 
L 299.2512 307.631076 
L 300.4416 310.390533 
L 301.632 311.714517 
L 302.8224 310.215839 
L 304.0128 312.833169 
L 305.2032 311.98475 
L 306.3936 308.496212 
L 307.584 313.312306 
L 308.7744 313.537878 
L 311.1552 309.909785 
L 312.3456 312.386464 
L 313.536 313.929652 
L 314.7264 311.953127 
L 315.9168 82.79956 
L 317.1072 78.902463 
L 318.2976 78.842661 
L 319.488 77.489144 
L 320.6784 78.567341 
L 321.8688 75.683034 
L 323.0592 78.118272 
L 324.2496 76.543936 
L 325.44 75.72664 
L 326.6304 77.792481 
L 327.8208 77.031532 
L 329.0112 72.690568 
L 330.2016 78.070403 
L 331.392 78.989706 
L 332.5824 79.515497 
L 333.7728 78.28062 
L 334.9632 85.007093 
L 336.1536 87.860194 
L 337.344 91.152749 
L 338.5344 91.337073 
L 339.7248 89.870819 
L 340.9152 89.836393 
L 342.1056 88.157182 
L 343.296 90.387433 
L 344.4864 89.633211 
L 345.6768 85.76589 
L 346.8672 86.025825 
L 348.0576 82.451722 
L 349.248 85.832101 
L 350.4384 84.936369 
L 351.6288 88.146838 
L 352.8192 89.537153 
L 354.0096 91.728271 
L 355.2 86.399419 
L 356.3904 90.005473 
L 357.5808 90.661109 
L 358.7712 89.815071 
L 359.9616 86.913164 
L 361.152 87.430802 
L 362.3424 87.051426 
L 363.5328 87.50177 
L 364.7232 89.342446 
L 365.9136 93.372105 
L 367.104 92.453659 
L 368.2944 91.077377 
L 369.4848 91.079527 
L 370.6752 84.707756 
L 371.8656 81.827166 
L 373.056 83.029109 
L 374.2464 78.094641 
L 375.4368 77.100835 
L 376.6272 75.89297 
L 377.8176 72.826803 
L 379.008 71.772363 
L 381.3888 66.113139 
L 382.5792 69.92062 
L 384.96 81.904231 
L 386.1504 81.868054 
L 387.3408 76.387177 
L 388.5312 72.896585 
L 389.7216 75.189761 
L 390.912 75.946492 
L 393.2928 79.943617 
L 394.4832 76.118131 
L 395.6736 76.662595 
L 396.864 73.598657 
L 398.0544 69.782 
L 399.2448 70.322243 
L 400.4352 69.639135 
L 401.6256 69.857451 
L 402.816 67.196111 
L 405.1968 64.145626 
L 406.3872 65.221807 
L 407.5776 61.495444 
L 408.768 56.247423 
L 409.9584 55.533351 
L 411.1488 49.115774 
L 412.3392 49.4265 
L 413.5296 49.354909 
L 414.72 48.948115 
L 414.72 48.948115 
" clip-path="url(#p3973f19768)" style="fill: none; stroke: #008000; stroke-width: 0.5; stroke-linecap: square"/>
   </g>
   <g id="line2d_18">
    <path d="M 57.6 117.373579 
L 58.7904 120.940753 
L 59.9808 121.88143 
L 61.1712 120.084286 
L 62.3616 119.896011 
L 63.552 123.36296 
L 64.7424 121.92602 
L 65.9328 119.800985 
L 67.1232 121.810682 
L 68.3136 122.555805 
L 69.504 127.147387 
L 70.6944 126.431717 
L 71.8848 131.005825 
L 73.0752 129.699842 
L 74.2656 128.983088 
L 75.456 129.094771 
L 76.6464 125.76423 
L 77.8368 124.487013 
L 79.0272 124.361338 
L 80.2176 121.196296 
L 81.408 121.06122 
L 82.5984 117.91355 
L 83.7888 121.37929 
L 84.9792 122.019336 
L 87.36 124.926078 
L 88.5504 121.97342 
L 89.7408 121.152838 
L 90.9312 117.026592 
L 92.1216 217.649356 
L 93.312 215.022628 
L 94.5024 218.207758 
L 95.6928 218.382446 
L 96.8832 223.793815 
L 98.0736 225.887525 
L 99.264 225.971131 
L 100.4544 227.15833 
L 101.6448 224.611745 
L 102.8352 227.847176 
L 104.0256 228.714803 
L 105.216 232.987657 
L 106.4064 234.496799 
L 107.5968 232.225115 
L 108.7872 229.107841 
L 109.9776 231.645927 
L 111.168 233.142372 
L 112.3584 231.670401 
L 113.5488 232.264923 
L 114.7392 228.784404 
L 115.9296 226.97027 
L 117.12 227.17193 
L 118.3104 226.547997 
L 119.5008 224.493819 
L 120.6912 223.176781 
L 121.8816 226.001917 
L 124.2624 232.83472 
L 125.4528 234.154215 
L 126.6432 231.926846 
L 127.8336 236.56264 
L 129.024 240.350399 
L 130.2144 238.310472 
L 131.4048 240.465618 
L 132.5952 240.865563 
L 133.7856 245.941716 
L 134.976 244.117976 
L 136.1664 243.695285 
L 137.3568 245.364137 
L 138.5472 243.996142 
L 139.7376 248.389558 
L 140.928 247.629976 
L 142.1184 245.513739 
L 144.4992 243.293115 
L 145.6896 243.114683 
L 146.88 241.482425 
L 148.0704 244.459 
L 149.2608 243.510452 
L 150.4512 243.207101 
L 151.6416 239.337661 
L 152.832 240.982274 
L 154.0224 243.596087 
L 155.2128 242.080527 
L 156.4032 245.377296 
L 157.5936 242.70159 
L 158.784 245.147755 
L 159.9744 247.249712 
L 161.1648 250.046032 
L 162.3552 249.786259 
L 163.5456 256.62793 
L 164.736 255.422908 
L 165.9264 253.494421 
L 167.1168 256.108432 
L 168.3072 254.150755 
L 169.4976 253.514309 
L 170.688 252.433664 
L 171.8784 253.366303 
L 173.0688 248.503593 
L 174.2592 246.151291 
L 175.4496 244.613968 
L 176.64 245.03404 
L 177.8304 243.102418 
L 179.0208 244.727215 
L 180.2112 243.963061 
L 181.4016 247.977539 
L 182.592 248.401041 
L 186.1632 244.557386 
L 187.3536 244.317545 
L 188.544 245.875829 
L 189.7344 246.760399 
L 190.9248 244.610619 
L 192.1152 243.751524 
L 193.3056 242.554405 
L 194.496 244.694358 
L 195.6864 243.577514 
L 196.8768 245.623755 
L 198.0672 246.597733 
L 199.2576 250.377646 
L 200.448 249.881682 
L 201.6384 247.761231 
L 202.8288 249.432929 
L 204.0192 251.433481 
L 205.2096 145.785229 
L 206.4 147.478253 
L 207.5904 145.400946 
L 208.7808 138.873139 
L 209.9712 142.102875 
L 211.1616 136.466796 
L 212.352 136.724957 
L 213.5424 133.923103 
L 214.7328 281.421789 
L 215.9232 283.430995 
L 217.1136 282.650183 
L 218.304 283.521075 
L 219.4944 281.351929 
L 220.6848 287.138101 
L 221.8752 290.170623 
L 223.0656 290.715508 
L 224.256 289.686998 
L 225.4464 290.528702 
L 226.6368 288.773688 
L 227.8272 284.656869 
L 229.0176 281.41193 
L 230.208 284.282891 
L 231.3984 285.515331 
L 232.5888 281.339862 
L 233.7792 281.249633 
L 234.9696 278.202787 
L 236.16 277.888759 
L 237.3504 276.408823 
L 238.5408 272.772299 
L 239.7312 276.383985 
L 240.9216 275.484131 
L 242.112 274.996941 
L 243.3024 277.083057 
L 244.4928 272.673703 
L 245.6832 276.869067 
L 248.064 277.159078 
L 249.2544 272.645885 
L 250.4448 274.913427 
L 251.6352 271.206157 
L 252.8256 271.409891 
L 254.016 265.225173 
L 255.2064 266.376559 
L 256.3968 264.681227 
L 257.5872 266.29817 
L 258.7776 269.255991 
L 259.968 268.868337 
L 261.1584 274.965405 
L 262.3488 272.464864 
L 263.5392 268.26272 
L 264.7296 271.031883 
L 265.92 271.538639 
L 267.1104 270.084304 
L 268.3008 267.185303 
L 269.4912 272.927478 
L 271.872 276.567227 
L 273.0624 271.940616 
L 274.2528 275.018769 
L 275.4432 274.462203 
L 276.6336 279.89547 
L 277.824 281.772462 
L 279.0144 279.270803 
L 280.2048 278.022151 
L 281.3952 273.649428 
L 282.5856 271.755009 
L 283.776 271.297926 
L 284.9664 275.980567 
L 286.1568 274.845948 
L 287.3472 273.929263 
L 288.5376 274.929644 
L 289.728 273.834864 
L 290.9184 270.539799 
L 292.1088 270.753228 
L 293.2992 274.483462 
L 294.4896 276.488949 
L 295.68 274.38889 
L 296.8704 271.67618 
L 298.0608 273.510303 
L 299.2512 277.168634 
L 300.4416 276.301655 
L 301.632 276.923692 
L 302.8224 279.337585 
L 304.0128 279.081134 
L 305.2032 275.447674 
L 306.3936 274.920708 
L 307.584 276.641235 
L 309.9648 270.757017 
L 311.1552 272.199926 
L 312.3456 273.83555 
L 313.536 272.209597 
L 314.7264 271.975877 
L 315.9168 268.331785 
L 317.1072 268.677615 
L 318.2976 267.60152 
L 319.488 264.475559 
L 320.6784 262.545168 
L 321.8688 261.745464 
L 323.0592 259.828606 
L 324.2496 257.24477 
L 325.44 259.842904 
L 326.6304 257.419981 
L 329.0112 261.120174 
L 330.2016 261.089671 
L 331.392 262.745647 
L 332.5824 262.063972 
L 333.7728 262.385183 
L 334.9632 262.041165 
L 336.1536 257.267715 
L 337.344 259.084728 
L 338.5344 259.80296 
L 339.7248 255.695656 
L 340.9152 257.772753 
L 342.1056 257.945707 
L 343.296 262.797983 
L 344.4864 258.467176 
L 345.6768 263.488366 
L 346.8672 262.680627 
L 348.0576 258.675139 
L 350.4384 259.893079 
L 351.6288 256.906734 
L 352.8192 256.998603 
L 354.0096 261.07725 
L 355.2 259.011743 
L 356.3904 262.706984 
L 357.5808 264.980644 
L 358.7712 266.85287 
L 359.9616 263.296885 
L 361.152 267.131404 
L 362.3424 261.553962 
L 363.5328 260.851947 
L 364.7232 257.45154 
L 365.9136 263.275234 
L 367.104 257.868382 
L 368.2944 259.132202 
L 369.4848 260.899745 
L 370.6752 258.532812 
L 371.8656 257.525176 
L 373.056 252.824951 
L 374.2464 248.613334 
L 375.4368 245.273691 
L 376.6272 243.995541 
L 377.8176 242.370959 
L 379.008 243.190477 
L 380.1984 243.744238 
L 381.3888 247.046313 
L 382.5792 247.357693 
L 383.7696 246.040177 
L 384.96 246.318745 
L 386.1504 245.878129 
L 387.3408 246.277439 
L 388.5312 246.461231 
L 389.7216 244.512069 
L 390.912 242.782413 
L 392.1024 240.557572 
L 393.2928 241.671336 
L 394.4832 242.545706 
L 395.6736 241.28233 
L 396.864 241.069691 
L 398.0544 246.176533 
L 399.2448 246.96148 
L 400.4352 246.504945 
L 401.6256 245.665864 
L 402.816 243.213492 
L 404.0064 242.770062 
L 405.1968 239.183759 
L 406.3872 235.014048 
L 407.5776 235.07243 
L 408.768 235.639769 
L 409.9584 236.498898 
L 411.1488 232.568866 
L 412.3392 229.198176 
L 413.5296 228.69757 
L 414.72 225.609851 
L 414.72 225.609851 
" clip-path="url(#p3973f19768)" style="fill: none; stroke: #008000; stroke-width: 0.5; stroke-linecap: square"/>
   </g>
   <g id="line2d_19">
    <path d="M 57.6 213.135407 
L 58.7904 216.458601 
L 59.9808 214.684927 
L 61.1712 214.019657 
L 62.3616 214.985438 
L 63.552 213.213681 
L 64.7424 211.971439 
L 65.9328 212.855225 
L 67.1232 210.412669 
L 68.3136 212.08657 
L 69.504 210.027036 
L 70.6944 203.11836 
L 71.8848 204.388038 
L 73.0752 199.628101 
L 75.456 201.204926 
L 76.6464 202.464993 
L 77.8368 196.453791 
L 79.0272 198.112116 
L 80.2176 195.737174 
L 81.408 196.990885 
L 82.5984 199.76218 
L 83.7888 195.106563 
L 84.9792 197.047947 
L 86.1696 196.798349 
L 87.36 196.895213 
L 88.5504 195.610805 
L 89.7408 195.016865 
L 90.9312 195.041459 
L 92.1216 193.69345 
L 93.312 191.546217 
L 94.5024 195.695293 
L 95.6928 194.762112 
L 96.8832 199.207082 
L 98.0736 197.966644 
L 99.264 198.09731 
L 100.4544 195.588829 
L 101.6448 196.098143 
L 102.8352 194.785005 
L 104.0256 199.085988 
L 105.216 197.568313 
L 106.4064 197.732288 
L 107.5968 199.367125 
L 108.7872 202.010648 
L 109.9776 203.643052 
L 111.168 204.542758 
L 112.3584 206.127185 
L 113.5488 203.705599 
L 114.7392 201.606139 
L 115.9296 204.463521 
L 117.12 203.446289 
L 118.3104 203.027317 
L 119.5008 203.403159 
L 120.6912 207.161746 
L 121.8816 203.377834 
L 123.072 205.586983 
L 124.2624 207.352487 
L 125.4528 207.781799 
L 126.6432 209.077423 
L 127.8336 208.427111 
L 129.024 201.202724 
L 130.2144 199.520249 
L 131.4048 198.757113 
L 132.5952 201.324654 
L 133.7856 200.086709 
L 134.976 198.290881 
L 136.1664 196.038436 
L 137.3568 191.985059 
L 138.5472 190.537951 
L 139.7376 189.784004 
L 140.928 188.535677 
L 142.1184 188.004284 
L 143.3088 188.745101 
L 144.4992 189.092343 
L 146.88 184.739407 
L 149.2608 176.901022 
L 150.4512 176.347808 
L 151.6416 178.890618 
L 152.832 183.80531 
L 154.0224 180.481554 
L 155.2128 176.315525 
L 156.4032 175.502425 
L 157.5936 179.674443 
L 158.784 182.943977 
L 159.9744 183.772565 
L 161.1648 182.84209 
L 162.3552 181.466563 
L 163.5456 182.359507 
L 164.736 181.643025 
L 165.9264 181.408408 
L 167.1168 177.85693 
L 168.3072 179.110463 
L 169.4976 182.038448 
L 171.8784 179.862408 
L 173.0688 175.380485 
L 174.2592 172.071989 
L 175.4496 170.879766 
L 176.64 175.157422 
L 177.8304 168.561497 
L 180.2112 170.237071 
L 181.4016 168.827295 
L 182.592 169.565442 
L 183.7824 167.645857 
L 184.9728 169.128874 
L 186.1632 167.00471 
L 188.544 170.060454 
L 189.7344 168.898985 
L 190.9248 170.300758 
L 192.1152 173.490135 
L 193.3056 175.949338 
L 194.496 177.532115 
L 195.6864 176.111239 
L 198.0672 183.154758 
L 199.2576 179.563048 
L 201.6384 181.656403 
L 202.8288 179.550897 
L 204.0192 174.009835 
L 205.2096 174.483514 
L 206.4 172.040878 
L 207.5904 170.276231 
L 208.7808 172.415551 
L 209.9712 174.861387 
L 211.1616 174.623278 
L 212.352 169.549561 
L 213.5424 161.372437 
L 214.7328 164.155212 
L 215.9232 166.349207 
L 217.1136 166.399288 
L 218.304 164.41797 
L 219.4944 55.746314 
L 220.6848 52.5644 
L 221.8752 51.707175 
L 223.0656 49.153197 
L 224.256 51.334087 
L 225.4464 51.094097 
L 226.6368 51.126099 
L 227.8272 54.608914 
L 229.0176 53.245581 
L 230.208 56.85324 
L 231.3984 54.392589 
L 232.5888 54.777884 
L 233.7792 57.25402 
L 234.9696 57.540233 
L 236.16 56.93518 
L 237.3504 55.188779 
L 238.5408 55.488867 
L 239.7312 52.831936 
L 240.9216 54.010246 
L 242.112 57.939455 
L 243.3024 56.508026 
L 244.4928 55.329354 
L 245.6832 55.375004 
L 246.8736 53.432322 
L 248.064 49.997245 
L 249.2544 50.454119 
L 250.4448 49.886947 
L 251.6352 54.104002 
L 252.8256 54.668063 
L 254.016 54.196062 
L 255.2064 57.751923 
L 256.3968 53.15499 
L 257.5872 57.817694 
L 258.7776 60.580481 
L 259.968 62.173423 
L 261.1584 63.975065 
L 262.3488 63.778872 
L 263.5392 62.205068 
L 264.7296 65.45855 
L 265.92 69.410929 
L 268.3008 72.467226 
L 269.4912 69.930747 
L 270.6816 69.542502 
L 271.872 69.483904 
L 273.0624 74.215075 
L 274.2528 76.890055 
L 275.4432 75.386226 
L 276.6336 82.598855 
L 277.824 82.248378 
L 279.0144 82.991199 
L 280.2048 83.463986 
L 281.3952 84.249167 
L 282.5856 85.884375 
L 283.776 86.082574 
L 284.9664 87.408128 
L 286.1568 92.317865 
L 287.3472 87.901343 
L 288.5376 87.069427 
L 289.728 86.833353 
L 290.9184 87.883218 
L 292.1088 83.351446 
L 293.2992 77.742626 
L 294.4896 73.73612 
L 295.68 73.152287 
L 296.8704 70.437428 
L 298.0608 71.864018 
L 299.2512 65.712864 
L 300.4416 62.64879 
L 301.632 64.218951 
L 302.8224 62.66426 
L 304.0128 67.259732 
L 305.2032 68.713427 
L 306.3936 70.711262 
L 307.584 70.379966 
L 308.7744 69.006779 
L 309.9648 64.948629 
L 311.1552 65.900047 
L 312.3456 71.216849 
L 313.536 71.839102 
L 314.7264 73.97681 
L 315.9168 71.416384 
L 317.1072 66.537542 
L 318.2976 63.515943 
L 319.488 58.611385 
L 321.8688 55.773151 
L 323.0592 55.667971 
L 324.2496 57.728066 
L 325.44 53.098056 
L 326.6304 52.141356 
L 327.8208 51.802649 
L 329.0112 53.512709 
L 330.2016 55.815281 
L 331.392 54.629812 
L 332.5824 54.580345 
L 333.7728 53.009673 
L 334.9632 57.076916 
L 336.1536 54.690484 
L 337.344 55.334485 
L 338.5344 52.146153 
L 339.7248 57.759277 
L 340.9152 57.410526 
L 342.1056 58.34243 
L 343.296 60.359184 
L 344.4864 59.264734 
L 345.6768 59.006632 
L 346.8672 57.760796 
L 348.0576 56.094845 
L 349.248 56.51775 
L 350.4384 53.207695 
L 351.6288 53.147132 
L 352.8192 56.293785 
L 354.0096 57.104891 
L 355.2 62.786344 
L 356.3904 61.386396 
L 357.5808 67.92224 
L 358.7712 65.633076 
L 359.9616 66.735695 
L 361.152 60.571302 
L 362.3424 61.123475 
L 363.5328 57.239071 
L 364.7232 52.777368 
L 365.9136 52.773437 
L 367.104 52.153312 
L 368.2944 52.139984 
L 369.4848 47.86379 
L 370.6752 50.287058 
L 371.8656 50.691919 
L 373.056 50.59459 
L 374.2464 49.704589 
L 375.4368 53.01385 
L 376.6272 51.894861 
L 377.8176 48.817931 
L 379.008 48.676047 
L 380.1984 52.12764 
L 381.3888 53.324596 
L 382.5792 52.305617 
L 383.7696 51.027797 
L 384.96 52.324724 
L 386.1504 53.404726 
L 387.3408 50.660314 
L 388.5312 50.890331 
L 389.7216 49.616749 
L 390.912 45.099167 
L 392.1024 42.54359 
L 393.2928 43.193195 
L 394.4832 45.065129 
L 395.6736 44.783385 
L 398.0544 39.686845 
L 399.2448 38.385294 
L 400.4352 35.792125 
L 401.6256 40.772191 
L 402.816 42.012922 
L 404.0064 38.423641 
L 405.1968 33.394485 
L 406.3872 27.107846 
L 407.5776 24.538868 
L 408.768 23.892619 
L 409.9584 24.371409 
L 411.1488 28.023459 
L 412.3392 32.081013 
L 413.5296 34.19812 
L 414.72 38.370362 
L 414.72 38.370362 
" clip-path="url(#p3973f19768)" style="fill: none; stroke: #008000; stroke-width: 0.5; stroke-linecap: square"/>
   </g>
   <g id="line2d_20">
    <path d="M 57.6 206.870352 
L 58.7904 208.052614 
L 59.9808 205.034726 
L 61.1712 206.751752 
L 63.552 209.099192 
L 64.7424 208.073334 
L 65.9328 209.564028 
L 67.1232 209.342385 
L 68.3136 210.265368 
L 69.504 205.807279 
L 70.6944 205.703265 
L 71.8848 210.468921 
L 73.0752 206.362639 
L 74.2656 205.300084 
L 75.456 204.468939 
L 76.6464 202.01574 
L 77.8368 204.787175 
L 79.0272 211.717514 
L 80.2176 212.649024 
L 81.408 212.257085 
L 82.5984 209.524774 
L 83.7888 217.196131 
L 84.9792 215.488397 
L 86.1696 217.012626 
L 87.36 215.096046 
L 88.5504 215.564245 
L 89.7408 222.062146 
L 90.9312 226.789332 
L 92.1216 228.514056 
L 93.312 227.560191 
L 94.5024 229.570279 
L 95.6928 227.7249 
L 96.8832 226.994445 
L 98.0736 227.019077 
L 99.264 225.932788 
L 100.4544 221.688847 
L 101.6448 221.599774 
L 102.8352 224.664936 
L 104.0256 223.287819 
L 105.216 222.589472 
L 106.4064 219.014721 
L 107.5968 219.538145 
L 108.7872 215.512593 
L 109.9776 215.346597 
L 111.168 210.563809 
L 112.3584 214.497281 
L 113.5488 208.708608 
L 114.7392 210.043086 
L 115.9296 204.277301 
L 117.12 202.651037 
L 118.3104 207.55098 
L 119.5008 208.231008 
L 120.6912 207.612331 
L 121.8816 204.865747 
L 123.072 208.278692 
L 124.2624 206.515062 
L 125.4528 207.022582 
L 126.6432 205.752525 
L 127.8336 203.284924 
L 129.024 209.235183 
L 130.2144 207.287312 
L 131.4048 204.983987 
L 132.5952 204.772786 
L 133.7856 208.23996 
L 134.976 214.082111 
L 136.1664 209.938344 
L 137.3568 209.082985 
L 138.5472 207.80623 
L 139.7376 207.020388 
L 140.928 203.696895 
L 142.1184 204.576137 
L 143.3088 207.927699 
L 144.4992 209.844732 
L 145.6896 214.541472 
L 146.88 213.396102 
L 148.0704 215.042954 
L 149.2608 215.221483 
L 150.4512 218.868957 
L 151.6416 216.202196 
L 152.832 216.310512 
L 154.0224 212.779029 
L 155.2128 214.62819 
L 156.4032 213.137942 
L 157.5936 207.837977 
L 158.784 208.048968 
L 161.1648 212.974855 
L 162.3552 212.211389 
L 163.5456 216.929281 
L 164.736 214.076501 
L 165.9264 210.899245 
L 167.1168 215.712587 
L 168.3072 217.838 
L 169.4976 212.117676 
L 170.688 210.910131 
L 171.8784 210.093955 
L 173.0688 211.745363 
L 174.2592 213.866154 
L 175.4496 217.341913 
L 176.64 219.910365 
L 177.8304 218.083686 
L 179.0208 218.4804 
L 180.2112 215.412416 
L 181.4016 215.165501 
L 182.592 215.202599 
L 183.7824 213.723074 
L 184.9728 210.963814 
L 186.1632 205.671319 
L 187.3536 203.117403 
L 188.544 200.00067 
L 189.7344 199.192795 
L 190.9248 199.648119 
L 192.1152 195.555122 
L 193.3056 196.522861 
L 194.496 198.689121 
L 195.6864 198.596123 
L 196.8768 200.920894 
L 198.0672 201.853399 
L 199.2576 203.926261 
L 200.448 202.046534 
L 201.6384 198.137034 
L 202.8288 196.774653 
L 204.0192 195.756356 
L 205.2096 190.439153 
L 206.4 193.807438 
L 207.5904 193.076663 
L 209.9712 199.332487 
L 211.1616 198.42018 
L 212.352 199.952795 
L 213.5424 196.411171 
L 214.7328 196.411589 
L 215.9232 199.838798 
L 217.1136 198.822974 
L 218.304 198.05037 
L 219.4944 197.124029 
L 220.6848 198.935641 
L 221.8752 200.084207 
L 223.0656 202.080636 
L 224.256 202.503538 
L 225.4464 204.480331 
L 226.6368 200.568312 
L 227.8272 206.392154 
L 229.0176 204.244511 
L 230.208 205.083418 
L 231.3984 207.013633 
L 232.5888 206.446464 
L 233.7792 209.263846 
L 234.9696 210.245537 
L 236.16 207.807794 
L 237.3504 207.623471 
L 240.9216 215.418071 
L 242.112 214.572668 
L 243.3024 212.955274 
L 244.4928 214.260768 
L 245.6832 216.001883 
L 248.064 221.521594 
L 249.2544 223.086286 
L 250.4448 225.379647 
L 251.6352 226.437696 
L 252.8256 220.10534 
L 254.016 223.860173 
L 255.2064 226.708984 
L 256.3968 226.665873 
L 257.5872 230.266914 
L 258.7776 233.013877 
L 259.968 230.808728 
L 261.1584 227.758524 
L 262.3488 234.619168 
L 263.5392 237.98079 
L 264.7296 239.681938 
L 265.92 238.128519 
L 267.1104 236.347222 
L 268.3008 233.034072 
L 269.4912 234.628516 
L 270.6816 239.640722 
L 271.872 240.820387 
L 273.0624 240.431107 
L 274.2528 235.800453 
L 275.4432 237.574922 
L 276.6336 234.556788 
L 277.824 238.566304 
L 279.0144 236.198775 
L 280.2048 236.185685 
L 281.3952 235.590998 
L 282.5856 236.334215 
L 283.776 229.807687 
L 284.9664 228.144645 
L 286.1568 229.218892 
L 287.3472 233.603286 
L 288.5376 232.231926 
L 289.728 232.639475 
L 290.9184 232.068803 
L 292.1088 229.439769 
L 293.2992 226.361121 
L 294.4896 227.13537 
L 295.68 225.080538 
L 296.8704 225.595229 
L 298.0608 228.724736 
L 299.2512 233.529148 
L 300.4416 235.714049 
L 301.632 235.033813 
L 302.8224 237.088464 
L 304.0128 236.799242 
L 305.2032 237.091204 
L 306.3936 238.180375 
L 307.584 238.236366 
L 309.9648 239.286945 
L 311.1552 246.89379 
L 312.3456 243.366185 
L 313.536 248.223539 
L 314.7264 248.577877 
L 315.9168 246.68216 
L 317.1072 247.024922 
L 318.2976 245.90809 
L 319.488 243.350649 
L 320.6784 243.887314 
L 321.8688 241.414638 
L 323.0592 240.916023 
L 324.2496 240.032643 
L 325.44 240.374955 
L 326.6304 238.132996 
L 327.8208 241.772107 
L 329.0112 238.407909 
L 330.2016 239.150935 
L 331.392 240.503743 
L 332.5824 236.930709 
L 333.7728 236.879887 
L 334.9632 238.244509 
L 336.1536 238.842048 
L 337.344 237.324976 
L 338.5344 239.759971 
L 339.7248 238.133399 
L 340.9152 237.380857 
L 342.1056 241.239812 
L 343.296 240.68451 
L 344.4864 241.026164 
L 345.6768 236.792994 
L 346.8672 237.326484 
L 348.0576 237.263245 
L 349.248 235.954101 
L 350.4384 234.240454 
L 351.6288 235.639217 
L 352.8192 236.68131 
L 354.0096 231.867813 
L 355.2 229.348044 
L 356.3904 229.021185 
L 357.5808 228.829739 
L 358.7712 224.396623 
L 359.9616 223.448247 
L 361.152 220.625359 
L 362.3424 220.89929 
L 363.5328 218.431872 
L 364.7232 218.148436 
L 365.9136 213.959776 
L 367.104 212.020086 
L 368.2944 208.244975 
L 369.4848 208.536633 
L 370.6752 211.576862 
L 373.056 211.257925 
L 375.4368 210.586467 
L 376.6272 209.893917 
L 377.8176 208.780466 
L 379.008 215.152859 
L 380.1984 216.812508 
L 382.5792 220.719508 
L 383.7696 220.332254 
L 384.96 215.347407 
L 386.1504 218.383423 
L 387.3408 218.663434 
L 388.5312 216.797172 
L 389.7216 215.877411 
L 390.912 212.589468 
L 392.1024 211.421047 
L 393.2928 211.428777 
L 394.4832 213.412581 
L 395.6736 207.239723 
L 396.864 203.852682 
L 399.2448 204.265594 
L 400.4352 205.699178 
L 401.6256 208.352329 
L 402.816 206.823873 
L 404.0064 202.271873 
L 405.1968 202.271755 
L 406.3872 204.838829 
L 407.5776 204.148362 
L 408.768 207.628848 
L 409.9584 208.876791 
L 411.1488 205.518394 
L 412.3392 201.23393 
L 413.5296 203.253097 
L 414.72 203.728833 
L 414.72 203.728833 
" clip-path="url(#p3973f19768)" style="fill: none; stroke: #008000; stroke-width: 0.5; stroke-linecap: square"/>
   </g>
   <g id="patch_3">
    <path d="M 57.6 307.584 
L 57.6 41.472 
" style="fill: none; stroke: #000000; stroke-width: 0.8; stroke-linejoin: miter; stroke-linecap: square"/>
   </g>
   <g id="patch_4">
    <path d="M 414.72 307.584 
L 414.72 41.472 
" style="fill: none; stroke: #000000; stroke-width: 0.8; stroke-linejoin: miter; stroke-linecap: square"/>
   </g>
   <g id="patch_5">
    <path d="M 57.6 307.584 
L 414.72 307.584 
" style="fill: none; stroke: #000000; stroke-width: 0.8; stroke-linejoin: miter; stroke-linecap: square"/>
   </g>
   <g id="patch_6">
    <path d="M 57.6 41.472 
L 414.72 41.472 
" style="fill: none; stroke: #000000; stroke-width: 0.8; stroke-linejoin: miter; stroke-linecap: square"/>
   </g>
  </g>
 </g>
 <defs>
  <clipPath id="p3973f19768">
   <rect x="57.6" y="41.472" width="357.12" height="266.112"/>
  </clipPath>
 </defs>
</svg>
